<?xml version="1.0" standalone="no"?>
<!DOCTYPE svg PUBLIC "-//W3C//DTD SVG 20010904//EN"
 "http://www.w3.org/TR/2001/REC-SVG-20010904/DTD/svg10.dtd">
<svg version="1.0" xmlns="http://www.w3.org/2000/svg"
 width="300.000000pt" height="300.000000pt" viewBox="0 0 300.000000 300.000000"
 preserveAspectRatio="xMidYMid meet">
<metadata>
Created by potrace 1.14, written by Peter Selinger 2001-2017
</metadata>
<g transform="translate(0.000000,300.000000) scale(0.100000,-0.100000)"
fill="#000000" stroke="none">
<path d="M1320 2989 c-30 -4 -75 -10 -100 -14 -50 -8 -189 -47 -235 -66 -16
-7 -32 -13 -35 -14 -42 -14 -173 -76 -180 -84 -3 -4 -16 -11 -30 -18 -54 -24
-204 -140 -288 -222 -242 -238 -385 -520 -437 -860 -15 -98 -13 -365 4 -451 6
-30 13 -69 16 -87 9 -54 71 -234 106 -308 95 -201 250 -399 414 -530 28 -22
52 -43 55 -46 13 -15 198 -123 254 -148 127 -59 265 -101 416 -126 63 -11 333
-14 400 -4 112 15 123 17 205 39 104 27 272 96 361 148 415 242 679 641 744
1122 9 68 6 354 -5 405 -3 17 -13 63 -21 103 -108 527 -542 978 -1080 1122
-158 43 -408 60 -564 39z m205 -792 c17 -3 58 -8 92 -11 261 -28 578 -120 843
-244 101 -47 129 -76 136 -140 5 -40 1 -54 -22 -89 -30 -45 -75 -73 -117 -73
-13 0 -63 18 -111 41 -165 77 -375 147 -551 184 -190 40 -333 53 -565 50 -124
-2 -234 -5 -245 -8 -11 -3 -45 -8 -75 -12 -30 -4 -64 -9 -75 -11 -23 -5 -55
-10 -104 -19 -19 -3 -37 -7 -40 -9 -3 -2 -24 -7 -45 -10 -141 -22 -219 129
-123 238 17 20 43 39 57 41 27 5 60 12 100 21 102 23 210 40 330 50 41 4 76 8
78 9 4 4 405 -4 437 -8z m-30 -602 c33 -3 71 -8 85 -10 14 -2 45 -7 70 -10 25
-3 59 -10 75 -15 17 -5 44 -11 60 -14 66 -10 251 -67 333 -102 137 -59 222
-101 245 -121 9 -9 22 -34 27 -55 10 -34 8 -45 -15 -90 -32 -63 -68 -98 -100
-98 -14 0 -67 20 -117 43 -139 66 -329 131 -440 152 -13 3 -45 9 -73 15 -82
16 -113 20 -193 27 -168 13 -410 3 -537 -21 -16 -4 -45 -9 -62 -12 -18 -3 -61
-13 -95 -23 -41 -11 -75 -14 -98 -10 -41 9 -89 59 -91 94 -1 14 -2 31 -3 38
-3 21 16 71 40 103 22 29 77 52 164 68 36 6 141 25 168 30 12 3 61 8 110 11
48 4 88 8 90 10 5 4 297 -3 357 -10z m-35 -560 c36 -4 74 -9 85 -11 11 -3 36
-7 55 -10 134 -21 304 -77 457 -150 101 -48 114 -57 129 -91 31 -75 22 -147
-23 -183 -39 -30 -73 -25 -185 29 -128 61 -270 110 -368 126 -19 3 -42 8 -50
10 -85 24 -342 35 -463 20 -86 -11 -100 -14 -152 -24 -73 -15 -110 -24 -160
-39 -41 -12 -89 3 -115 35 -35 44 -20 154 27 201 26 26 249 76 388 87 38 3 70
7 72 9 5 5 239 -1 303 -9z"/>
</g>
</svg>
